<svg viewBox="0 0 55.6 55.6" xmlns="http://www.w3.org/2000/svg"><circle cx="27.8" cy="27.8" fill="#f6a82b" r="26.5" stroke-miterlimit="10"/><path d="m42.8 20.4c2.7.3 2.7 1.4 2.7 1.8 0 .3 0 .5-.1.8v.2c-.2.1-.9.3-1.4.4-1.5.4-3.7.9-5 2.3-.7.7-1.6 1.6-2.7 2.6-3.1 3-5.2 5-5.4 5.9-.1.2-.3.8-.3 3.8v2.2h-11.2v-6.4c0-.3-.2-.6-.5-1.1-.6-.9-1.8-2.6-2.5-5.8-.3-1.4-.4-3.1-.4-5v-.1-2.5c0-1.8.1-3.6.2-4 0-.1.2-.2.8-.3.9-.1 1.7.1 2 .4v.7c0 1 0 1 .1 1.1.1.2.3.3.6.3.2 0 .4-.2.4-.5 0-.2 0-.7.1-1.2 0-.5.1-1.3.1-1.5 0-.1.3-.3.9-.4 1-.2 2.1.1 2.4.5v.7c0 .7 0 .8.1.9.1.2.3.4.5.3.2 0 .4-.2.4-.5 0-.2 0-.6.1-1.1 0-.5.1-1.3.1-1.5 0-.1.3-.3 1-.4 1-.1 2 .1 2.4.5v.8c0 1 0 1 .1 1.1.1.2.3.3.5.3s.4-.2.5-.4v-1-.9c.1-.1.3-.3.9-.4 1.1-.2 2.3.1 2.5.5s.4 1.8.4 3.9c0 1.2-.1 2.3-.2 3.2v.2c.2 1.2.5 1.9 1 2.3.9.7 2 0 3.5-.9 1.5-.8 3.4-2 5.4-1.8z" fill="#fff"/><g fill="#b56610"><path d="m16.1 22.2c-.1 1.9.1 3.6.4 5 .6 3.1 1.8 4.8 2.5 5.8.3.5.5.8.5 1.1v6.4h11.2v-2.2c0-2.9.2-3.6.3-3.8.3-.9 2.3-2.9 5.4-5.9 1-1 2-1.9 2.7-2.6 1.4-1.4 3.5-1.9 5-2.3.5-.1 1.2-.3 1.4-.4v-.2c0-.2.1-.5.1-.8 0-.4 0-1.6-2.7-1.8-2-.2-3.9 1-5.5 1.9-1.5.9-2.6 1.6-3.5.9-.4-.4-.7-1.1-1-2.3v-.2c.1-.8.2-2 .2-3.2 0-2.1-.2-3.6-.4-3.9-.2-.4-1.4-.7-2.5-.5-.6.1-.8.3-.9.4v1.9c0 .2-.2.4-.5.4-.2 0-.4-.1-.5-.3 0-.1 0-.1-.1-1.1v-.8c-.3-.4-1.4-.6-2.4-.5-.6.1-.9.3-1 .4 0 .1-.1.9-.1 1.5 0 .4 0 .8-.1 1.1 0 .2-.2.4-.4.5-.2 0-.5-.1-.5-.3 0-.1 0-.2-.1-.9v-.7c-.3-.4-1.4-.6-2.4-.5-.6.1-.9.3-.9.4 0 .2-.1.9-.1 1.5 0 .5 0 1-.1 1.2 0 .2-.2.4-.4.5-.2 0-.4-.1-.6-.3-.1-.3-.1-.3-.1-1.3v-.7c-.3-.3-1.2-.5-2-.4-.6.1-.8.3-.8.3-.1.5-.2 2.2-.2 4 0 1.1 0 2 .1 2.7 0-.1 0-.1 0 0zm3.1-8c.2-.6.8-1 1.8-1.2.9-.1 2.1 0 2.8.4v-.2c.2-.6.8-1.1 1.8-1.2s2.3 0 3 .6c.3-.3.8-.5 1.4-.6 1.3-.2 3 .1 3.5 1 .6.9.6 3.9.6 4.5 0 1.2-.1 2.4-.2 3.2.2 1.2.5 1.5.6 1.6.3.2 1.4-.4 2.3-1 1.7-1 3.8-2.3 6.1-2 2.4.2 3.6 1.2 3.6 2.8 0 .4-.1.7-.1.9v.3c-.1.7-.9.9-2.2 1.2-1.4.3-3.4.8-4.5 2-.7.8-1.7 1.8-2.7 2.8-2 1.9-5 4.8-5.2 5.5-.1.3-.2 1.1-.2 3.5v2.7c0 .1 0 .3-.1.4s-.2.2-.4.2h-12.2c-.3 0-.5-.2-.5-.5v-6.9c0-.1-.2-.3-.4-.6-.7-1-2-2.8-2.6-6.1-.3-1.5-.4-3.3-.4-5.2-.1-.8-.1-1.9-.1-2.7s0-1.7.1-2.5.1-1.5.2-1.8c.1-.6.7-1 1.6-1.1.7-.1 1.6 0 2.3.3 0-.1 0-.2.1-.3z"/><path d="m16.667 43.068v-4.2h17.1v4.2z"/></g></svg>