<svg viewBox="0 0 55.6 55.6" xmlns="http://www.w3.org/2000/svg"><circle cx="27.8" cy="27.8" fill="#00d177" r="26.5" stroke-miterlimit="10"/><path d="m40.3 24.3c.4.2.7 1.4.5 2.5-.1.6-.3.8-.4.9h-1.9c-.2 0-.4.2-.4.5 0 .2.1.4.3.5.1 0 .1 0 1.1.1h.8c.4.3.6 1.4.5 2.4-.1.6-.3.9-.4 1-.1 0-.9.1-1.5.1-.4 0-.8 0-1.1.1-.2 0-.4.2-.5.4 0 .2.1.5.3.5.1 0 .2 0 .9.1h.7c.4.3.6 1.4.5 2.4-.1.6-.3.9-.4.9-.2 0-.9.1-1.5.1-.5 0-1 0-1.2.1-.2 0-.4.2-.5.4s.1.4.3.6c.1.1.1.1 1.1.1h.7c.3.3.5 1.2.4 2-.1.5-.3.8-.3.8-.2.1-.8.1-1.5.2-.7 0-1.6.1-2.5.1-1.1 0-2 0-2.6-.1h-.1c-1.9.1-3.6-.1-5-.4-3.1-.6-4.8-1.8-5.8-2.5-.5-.3-.8-.5-1.1-.5h-6.4v-11.3h2.2c2.9 0 3.6-.2 3.8-.3.9-.3 2.9-2.3 5.9-5.4 1-1 1.9-2 2.6-2.7 1.4-1.4 1.9-3.5 2.3-5 .1-.5.3-1.2.4-1.4h.2c.2 0 .5-.1.8-.1.4 0 1.6 0 1.8 2.7.2 2-1 3.9-1.9 5.5-.9 1.5-1.6 2.6-.9 3.5.4.4 1.1.8 2.3 1h.2c.8-.1 2-.2 3.2-.2 2.3-.1 3.8.2 4.1.4z" fill="#fff"/><g fill="#1b7a51"><path d="m21 38c.9.6 2.6 1.8 5.8 2.5 1.4.3 3.1.4 5 .4h.1c.6.1 1.5.1 2.6.1.9 0 1.8 0 2.5-.1.7 0 1.3-.1 1.5-.2.1 0 .2-.2.3-.8.1-.9-.1-1.7-.4-2h-.7c-1 0-1 0-1.1-.1-.2-.1-.3-.3-.3-.6s.2-.4.5-.4c.2 0 .7 0 1.2-.1.5 0 1.3-.1 1.5-.1.1 0 .3-.3.4-.9.2-1-.1-2.1-.5-2.4h-.7c-.7 0-.8 0-.9-.1-.2-.1-.4-.3-.3-.5 0-.2.2-.4.5-.4.2 0 .6 0 1.1-.1.5 0 1.3-.1 1.5-.1.1 0 .3-.3.4-1 .1-1-.1-2-.5-2.4h-.8c-1 0-1 0-1.1-.1-.2-.1-.3-.3-.3-.5s.2-.4.4-.5h1.9c.1-.1.3-.3.4-.9.2-1.1-.1-2.3-.5-2.5-.3-.2-1.8-.4-3.9-.4-1.2 0-2.3.1-3.2.2h-.2c-1.2-.2-1.9-.5-2.3-1-.7-.9 0-2 .9-3.5.9-1.6 2.1-3.5 1.9-5.5-.3-2.7-1.4-2.7-1.8-2.7-.3 0-.5 0-.8.1h-.2c-.1.2-.3.9-.4 1.4-.4 1.5-.9 3.7-2.3 5-.7.7-1.6 1.6-2.6 2.7-3 3.1-5 5.2-5.9 5.4-.2.1-.8.3-3.8.3h-2.2v11.2h6.4c.1.1.4.3.9.6zm-8.5 0v-12.2c0-.1.1-.3.2-.4s.2-.1.4-.1h2.7c2.4 0 3.2-.1 3.5-.2.7-.2 3.6-3.2 5.5-5.2 1-1 1.9-2 2.6-2.7 1.2-1.2 1.7-3.1 2-4.5.3-1.3.5-2.1 1.2-2.2h.3c.3 0 .6-.1.9-.1 1.6 0 2.6 1.2 2.8 3.6.2 2.3-1 4.4-2 6.1-.6.9-1.2 2-1 2.3.1.1.4.4 1.6.6.9-.1 2-.2 3.2-.2.6 0 3.6 0 4.5.6s1.2 2.2 1 3.5c-.1.6-.3 1.1-.6 1.4.5.7.7 2 .6 3s-.6 1.7-1.2 1.8h-.2c.4.8.5 1.9.4 2.8-.1 1-.6 1.6-1.2 1.8h-.2c.3.7.4 1.6.3 2.3-.1.9-.5 1.5-1.1 1.6-.7.3-2.7.4-4.3.4-.8 0-1.8 0-2.7-.1-2 .1-3.7-.1-5.2-.4-3.4-.7-5.2-2-6.1-2.6-.2-.1-.5-.3-.6-.4h-6.8c-.3 0-.5-.2-.5-.5z"/><path d="m11.4 23.3h4.2v17.1h-4.2z"/></g></svg>