<svg viewBox="0 0 55.6 55.6" xmlns="http://www.w3.org/2000/svg"><circle cx="27.8" cy="27.8" fill="#f7636b" r="26.5" stroke-miterlimit="10"/><path d="m12.8 25.2c-.1 1 .1 2 .5 2.4h.8c1 0 1 0 1.1.1.2.1.3.3.3.5s-.2.4-.4.4h-1.9c-.1.1-.3.3-.4.9-.2 1.1.1 2.3.5 2.5.3.2 1.8.4 3.9.4 1.2 0 2.3-.1 3.2-.2h.2c1.2.2 1.9.5 2.3 1 .7.9 0 2-.9 3.5-.9 1.6-2.1 3.5-1.9 5.5.3 2.7 1.4 2.7 1.8 2.7.3 0 .5 0 .8-.1h.2c.1-.2.3-.9.4-1.4.4-1.5.9-3.7 2.3-5 .7-.7 1.6-1.6 2.6-2.7 3-3.1 5-5.2 5.9-5.4.2-.1.8-.3 3.8-.3h2.2v-11.1h-6.4c-.3 0-.6-.2-1.1-.5-.9-.6-2.6-1.8-5.8-2.5-1.4-.3-3.1-.4-5-.4h-.1c-.6-.1-1.5-.1-2.6-.1-1.8 0-3.6.1-4 .2-.1 0-.2.2-.3.8-.1.9.1 1.7.4 2h.7c1 0 1 0 1.1.1.2.1.3.3.3.6s-.2.4-.5.4c-.2 0-.7 0-1.2.1-.5 0-1.3 0-1.5.1-.1 0-.3.3-.4.9-.2 1 .1 2.1.5 2.4h.7c.7 0 .8 0 .9.1.2.1.4.3.3.5 0 .2-.2.4-.5.4-.2 0-.6 0-1.1.1-.5 0-1.3.1-1.5.1.1.1-.1.4-.2 1z" fill="#fff"/><g fill="#ba354e"><path d="m20.1 42.3c-.2-2 1-3.9 1.9-5.5.9-1.5 1.6-2.6.9-3.5-.4-.4-1.1-.7-2.3-1h-.2c-.8.1-2 .2-3.2.2-2.1 0-3.6-.2-3.9-.4-.4-.2-.7-1.4-.5-2.5.1-.6.3-.8.4-.9h1.9c.2 0 .4-.2.4-.4s-.1-.4-.3-.5c-.1 0-.1 0-1.1-.1h-.8c-.4-.3-.6-1.4-.5-2.4.1-.6.3-.9.4-1 .1 0 .9-.1 1.5-.1.4 0 .8 0 1.1-.1.2 0 .4-.2.5-.4 0-.2-.1-.5-.3-.5-.1 0-.2 0-.9-.1h-.7c-.4-.3-.6-1.4-.5-2.4.1-.6.3-.9.4-.9.2 0 .9-.1 1.5-.1.5 0 1 0 1.2-.1.2 0 .4-.2.5-.4s-.1-.4-.3-.6c-.2-.1-.2-.1-1.2-.1h-.7c-.3-.3-.5-1.2-.4-2 .1-.6.3-.8.3-.8.5-.1 2.2-.2 4-.2 1.1 0 2 0 2.6.1h.1c1.9-.1 3.6.1 5 .4 3.1.6 4.8 1.8 5.8 2.5.5.3.8.5 1.1.5h6.4v11.2h-2.2c-2.9 0-3.6.2-3.8.3-.9.3-2.9 2.3-5.9 5.4-1 1-1.9 2-2.6 2.7-1.4 1.4-1.9 3.5-2.3 5-.1.5-.3 1.2-.4 1.4h-.2c-.2 0-.5.1-.8.1-.5-.1-1.6-.1-1.9-2.8zm-8.3-12.8c-.2 1.3.1 3 1 3.5.9.6 3.9.6 4.5.6 1.2 0 2.4-.1 3.2-.2 1.2.2 1.5.5 1.6.6.2.3-.4 1.4-1 2.3-1 1.7-2.3 3.8-2 6.1.2 2.4 1.2 3.6 2.8 3.6.4 0 .7-.1.9-.1h.3c.7-.1.9-.9 1.2-2.2.3-1.4.8-3.4 2-4.5.7-.7 1.6-1.6 2.6-2.7 1.9-2 4.8-5 5.5-5.2.3-.1 1-.2 3.5-.2h2.7c.1 0 .3 0 .4-.1s.2-.2.2-.4v-12.2c0-.3-.2-.5-.5-.5h-6.9c-.1 0-.3-.2-.6-.4-1-.7-2.8-2-6.1-2.6-1.5-.3-3.3-.4-5.2-.4-.8-.1-1.9-.1-2.7-.1-1.6 0-3.6.1-4.3.3-.6.1-1 .7-1.1 1.6-.1.7 0 1.6.3 2.3h-.2c-.6.2-1 .8-1.2 1.8-.1.9 0 2.1.4 2.8h-.2c-.6.2-1.1.8-1.2 1.8s0 2.3.6 3c-.2.4-.4.9-.5 1.5z"/><path d="m43.26 33.168h-4.2v-17.1h4.2z"/></g></svg>