<svg viewBox="0 0 252 29" xmlns="http://www.w3.org/2000/svg"><path d="m134.06 9.5215h3v-4.6286l3-.94286v5.5714h4.7143v2.5714h-4.7143v10.629c-.085713.94286.17143 1.8857.68572 2.7429.51428.6 1.3714.85714 2.1429.77143.68572 0 1.3714-.17143 1.9714-.6v2.5714c-.85714.42857-1.8857.6-2.8286.6-3.3429 0-4.9714-1.8-4.9714-5.4857v-11.229h-3-4.4571v16.286h-3v-16.286h-3.2571v-2.5714h3.2571v-3.0857c-.085714-1.7143.51429-3.4286 1.7143-4.7143 1.1143-1.1143 2.6571-1.8 4.2857-1.7143.77143 0 1.4571.085714 2.2286.34286l-.085714 2.7429c-.6-.34286-1.2857-.51429-1.9714-.51429-2.1429 0-3.1714 1.3714-3.1714 4.0286v2.9143h4.4571zm-107.14 18.857h-3.0857v-17.743c0-1.3714.085714-3.0857.25714-5.1429h-.085714c-.17143.85714-.42857 1.7143-.77143 2.5714l-9 20.314h-1.5429l-9-20.143c-.34286-.85714-.6-1.8-.77143-2.7429h-.085714c.085714 1.0286.17143 2.7429.17143 5.1429v17.743h-3v-26.4h4.1143l8.1429 18.429c.51429 1.0286.85714 2.0571 1.2 3.1714h.085714c.51429-1.4571.94286-2.5714 1.2857-3.2571l8.2286-18.343h3.8571v26.4zm6.9429-23.657c-.51429 0-1.0286-.17143-1.3714-.51429-.34286-.34286-.6-.85714-.6-1.3714 0-1.0286.85714-1.9714 1.8857-1.9714h.085714c.51429 0 1.0286.17143 1.3714.6.77143.77143.77143 1.9714 0 2.7429-.34286.34286-.85714.51429-1.3714.51429zm1.4571 23.657h-3v-18.857h3zm17.829-.85714c-1.5429.94286-3.3429 1.3714-5.1429 1.2857-2.4857.085714-4.8-.85714-6.5143-2.6571-1.7143-1.8857-2.5714-4.2857-2.4857-6.7714-.17143-2.7429.85714-5.4 2.6571-7.4571 1.8857-1.8857 4.4571-2.9143 7.1143-2.8286 1.5429 0 3 .25714 4.3714.94286v3.0857c-1.2857-.94286-2.9143-1.4571-4.4571-1.4571-1.8-.085714-3.5143.68571-4.7143 2.0571-1.2857 1.5429-1.9714 3.4286-1.8857 5.4-.085714 1.8857.51429 3.7714 1.7143 5.2286 1.2 1.2857 2.9143 1.9714 4.6286 1.8857 1.7143 0 3.3429-.6 4.6286-1.6286v2.9143h.085714zm13.286-14.914c-.68571-.42857-1.4571-.68571-2.3143-.6-1.2857 0-2.5714.68571-3.2571 1.8-.94286 1.4571-1.3714 3.2571-1.2857 4.9714v9.6h-3v-18.857h3v3.8571h.085714c.34286-1.2 1.0286-2.3143 1.9714-3.0857.85714-.68571 1.8857-1.1143 3-1.1143.6 0 1.2.085714 1.8.25714v3.1714zm22.029 15.086v-3.2571c1.5429 1.2 3.4286 1.8 5.4 1.8 2.6571 0 3.9429-.85714 3.9429-2.6571 0-.42857-.085714-.85714-.34286-1.2857-.25714-.34286-.51429-.68571-.94286-.94286-.42857-.25714-.85714-.51429-1.3714-.68571-.51429-.25714-1.1143-.42857-1.7143-.68571-.77143-.25714-1.4571-.6-2.2286-1.0286-.6-.34286-1.1143-.68571-1.5429-1.1143-.42857-.42857-.77143-.94286-.94286-1.4571-.25714-.6-.34286-1.2857-.34286-1.8857 0-.85714.17143-1.6286.6-2.3143.42857-.68571.94286-1.2857 1.6286-1.7143.68571-.51429 1.4571-.85714 2.3143-1.0286.85714-.25714 1.8-.34286 2.6571-.34286 1.5429 0 3 .25714 4.3714.85714v3c-1.4571-.94286-3.0857-1.3714-4.8-1.3714-.51429 0-1.0286.085714-1.5429.17143-.42857.085714-.77143.25714-1.2.51429-.34286.25714-.6.51429-.77143.85714-.17143.34286-.25714.68571-.25714 1.1143s.085714.85714.25714 1.2c.17143.34286.42857.68571.77143.85714.42857.25714.77143.51429 1.2857.68571.51429.17143 1.0286.42857 1.7143.68571.77143.25714 1.5429.6 2.2286.94286.6.34286 1.2.68571 1.7143 1.1143.42857.42857.85714.94286 1.1143 1.4571.25714.6.42857 1.2857.34286 1.9714 0 .85714-.17143 1.7143-.6 2.4-.42857.68571-.94286 1.2857-1.6286 1.7143-.68571.51429-1.5429.77143-2.4 1.0286-.94286.25714-1.8857.34286-2.8286.34286-1.6286.25714-3.3429-.17143-4.8857-.94286zm84.514-22.886h-7.6286v23.571h-3.0857v-23.571h-7.6286v-2.8286h18.343v2.8286zm62.314 23.571h-3v-10.8c0-2.0571-.34286-3.6-.94286-4.5429-.77143-1.0286-1.9714-1.5429-3.2571-1.3714-1.2857 0-2.5714.68571-3.2571 1.8-.94286 1.2-1.3714 2.7429-1.3714 4.2v10.714h-3v-11.229c0-3.6857-1.4571-5.5714-4.2857-5.5714-1.2857 0-2.4857.6-3.2571 1.6286-.94286 1.2857-1.3714 2.8286-1.2857 4.3714v10.8h-3v-18.857h3v3h.085715c1.1143-2.1429 3.4286-3.5143 5.8286-3.4286 2.4857-.085714 4.6286 1.5429 5.3143 3.9429 1.1143-2.4 3.6-3.9429 6.2571-3.9429 4.1143 0 6.2571 2.5714 6.2571 7.7143l-.085715 11.571zm3.4286-.68571v-3.2571c1.5429 1.2 3.4286 1.8 5.4 1.8 2.6571 0 3.9429-.85714 3.9429-2.6571 0-.42857-.085714-.85714-.34286-1.2857-.25714-.34286-.51429-.68571-.94286-.94286-.42857-.25714-.85714-.51429-1.3714-.68571-.51429-.25714-1.1143-.42857-1.7143-.68571-.77143-.25714-1.4571-.6-2.2286-1.0286-.6-.34286-1.1143-.68571-1.5429-1.1143s-.77143-.94286-.94286-1.4571c-.25714-.6-.34286-1.2857-.34286-1.8857 0-.85714.17143-1.6286.6-2.3143.42857-.68571.94286-1.2857 1.6286-1.7143.68572-.51429 1.4571-.85714 2.3143-1.0286.85714-.25714 1.8-.34286 2.6571-.34286 1.5429 0 3 .25714 4.3714.85714v3c-1.4571-.94286-3.0857-1.3714-4.8-1.3714-.51429 0-1.0286.085714-1.5429.17143-.42857.085714-.77143.25714-1.2.51429-.34286.25714-.6.51429-.77143.85714-.17143.34286-.25714.68571-.25714 1.1143s.085715.85714.25714 1.2c.17143.34286.42857.68571.77143.85714.42857.25714.77143.51429 1.2857.68571.51428.17143 1.0286.42857 1.7143.68571.77143.25714 1.5429.6 2.2286.94286.6.34286 1.2.68571 1.7143 1.1143.42857.42857.85714.94286 1.1143 1.4571.25714.6.42857 1.2857.34286 1.9714 0 .85714-.17143 1.7143-.6 2.4-.42857.68571-.94286 1.2857-1.6286 1.7143-.68571.51429-1.5429.77143-2.4 1.0286-.94286.25714-1.8857.34286-2.8286.34286-1.5429.25714-3.3429-.17143-4.8857-.94286zm-64.971-7.9714c-.085715 1.8.51428 3.5143 1.7143 4.8857 1.2 1.2 2.8286 1.8 4.4571 1.7143 2.1429 0 4.2-.77143 5.8286-2.0571v2.8286c-1.9714 1.2857-4.2857 1.8857-6.6 1.8-2.4.085714-4.7143-.85714-6.2571-2.5714-1.5429-1.7143-2.3143-4.1143-2.3143-7.2-.085715-2.6571.77143-5.2286 2.4857-7.2 1.5429-1.8 3.8571-2.8286 6.1714-2.7429 2.1429-.085714 4.2857.77143 5.7429 2.4 1.3714 1.6286 2.0571 3.7714 2.0571 6.6857v1.4571h-13.286zm10.2-2.5714c.085713-1.4571-.34286-2.9143-1.2857-4.0286-.85714-1.0286-2.1429-1.5429-3.4286-1.4571-1.3714 0-2.6571.51429-3.6 1.5429-1.0286 1.1143-1.7143 2.4857-1.8 4.0286h10.114v-.085714zm20.057 11.229h-3v-2.9143h-.085714c-1.1143 2.1429-3.3429 3.4286-5.8286 3.4286-1.6286.085714-3.1714-.42857-4.3714-1.4571-1.1143-1.0286-1.6286-2.4857-1.6286-3.9429 0-3.5143 2.0571-5.5714 6.2571-6.1714l5.6571-.77143c0-3.1714-1.2857-4.8-3.8571-4.8-2.2286 0-4.4571.85714-6.1714 2.3143v-3.0857c1.8857-1.2 4.1143-1.8 6.4286-1.8 4.4571 0 6.6857 2.3143 6.6857 7.0286v12.171h-.085714zm-3.0857-9.5143-4.5429.6c-1.1143.085714-2.2286.42857-3.1714 1.0286-.77143.68571-1.2 1.6286-1.0286 2.6571 0 .85714.34286 1.7143.94286 2.2286.77143.6 1.6286.94286 2.6571.85714 1.3714 0 2.7429-.51429 3.6857-1.5429 1.0286-1.1143 1.5429-2.4857 1.4571-4.0286v-1.8zm-88.629 9.9429c-2.4857.085714-4.9714-.85714-6.6857-2.6571-1.7143-1.8857-2.6571-4.4571-2.4857-7.0286 0-3.1714.85714-5.6571 2.5714-7.4571 1.8857-1.8 4.3714-2.8286 7.0286-2.6571 2.4857-.17143 4.8857.77143 6.6 2.5714 1.5429 1.7143 2.4 4.1143 2.4 7.2.17143 2.6571-.77143 5.2286-2.5714 7.2-1.8 1.9714-4.2857 3-6.8571 2.8286zm.25714-17.229c-1.7143-.085714-3.4286.68571-4.6286 1.9714-1.2 1.5429-1.8 3.5143-1.7143 5.4857-.085714 1.8857.51429 3.7714 1.7143 5.3143 1.2 1.2857 2.8286 1.9714 4.5429 1.9714 1.7143.085714 3.3429-.6 4.5429-1.8857 1.1143-1.5429 1.7143-3.4286 1.5429-5.4.085714-1.9714-.42857-3.8571-1.5429-5.4857-1.1143-1.2857-2.7429-2.0571-4.4571-1.9714zm-36.086 17.229c-2.4857.085714-4.9714-.85714-6.6857-2.6571-1.7143-1.8857-2.6571-4.4571-2.4857-7.0286 0-3.1714.85714-5.6571 2.5714-7.4571 1.8857-1.8 4.3714-2.8286 7.0286-2.6571 2.4857-.17143 4.8857.77143 6.6 2.5714 1.5429 1.7143 2.4 4.1143 2.4 7.2.17143 2.6571-.77143 5.2286-2.5714 7.2-1.8 1.9714-4.2857 3-6.8571 2.8286zm.25714-17.229c-1.7143-.085714-3.4286.68571-4.6286 1.9714-1.2 1.5429-1.8 3.5143-1.7143 5.4857-.085714 1.8857.51429 3.7714 1.7143 5.3143 1.2 1.2857 2.8286 1.9714 4.6286 1.9714 1.7143.085714 3.3429-.6 4.5429-1.8857 1.1143-1.5429 1.7143-3.4286 1.5429-5.4.085714-1.9714-.42857-3.8571-1.5429-5.4857-1.2-1.2857-2.8286-2.0571-4.5429-1.9714z" fill="#fff"/></svg>