<svg enable-background="new 0 0 2327.3 574.5" viewBox="0 0 2327.3 574.5" xmlns="http://www.w3.org/2000/svg"><path d="m799.6 264.9c4.8-30.2 31.4-67.7 82.2-67.7 47.1 0 74.3 34.5 78.6 67.7zm-65.3 24.2c0 83.4 60.4 140.2 148.7 140.2 58 0 96.1-28.4 118.5-53.2 2.3-2.5 3.6-6 0-9.7l-31.1-28.7c-3.6-3.6-7.1-2.3-9.7 0-15.8 13.9-40.2 36-77.7 36-43.5 0-75-26.6-82.2-60.4h215.2c6 0 9.7-3.6 9.7-9.7v-13.3c0-79.8-52-146.3-140.2-146.3-95 0-151.2 64.8-151.2 145.1zm330 128.1c0 4.8 2.4 7.3 7.3 7.3h45.9c4.8 0 7.3-2.4 7.3-7.3v-383.2c0-3.6-1.2-6-6-6h-48.4c-4.8 0-6 2.4-6 6v383.2zm-425.5 0c0 4.8 2.4 7.3 7.3 7.3h45.9c4.8 0 7.3-2.4 7.3-7.3v-153.5c0-65.3-38.7-119.7-120.9-119.7h-1.2c-39.9 0-70.1 13.3-88.2 29v-14.5c0-4.8-3.6-7.3-7.3-7.3h-45.9c-4.8 0-7.3 2.4-7.3 7.3v258.7c0 4.8 2.4 7.3 7.3 7.3h45.9c4.8 0 7.3-2.4 7.3-7.3v-142.6c0-44.7 23-77.4 76.2-77.4s73.7 32.6 73.7 77.4v142.6zm870.7 80.8c21.1 24.7 65.5 54.6 127.9 54.6 87.2 0 140.2-53.2 140.2-137.8v-256.3c0-4.8-2.4-7.3-7.3-7.3h-43.5c-4.8 0-7.3 2.4-7.3 7.3v14.5c-19.3-15.7-44.7-29-85.8-29-78.6 0-147.5 58-147.5 142.6 0 85.8 66.5 142.6 147.5 142.6 38 0 64.6-13.9 83.4-28.6v17.8c0 48.4-28.1 79.8-80.3 79.8-43.3 0-72-23.5-90.2-41.1-3.7-3.6-8.5-3.6-12.1 0l-25.1 28.8c-3.6 3.6-3.6 7.2.1 12.1zm-1181.4-211.4c0 48.4-36.3 87-84.6 87s-82.2-41.1-82.2-87v-2.4c0-45.9 33.8-84.6 82.2-84.6s84.6 38.7 84.6 87zm-232.1 0c0 77.4 62.9 142.6 147.5 142.6s147.5-65.2 147.5-142.6v-2.4c0-77.4-62.9-140.2-147.5-140.2s-147.5 62.9-147.5 142.6zm1297.2 0c0 48.4-36.3 87-84.6 87-48.4 0-82.2-41.1-82.2-87v-2.4c0-45.9 33.8-84.6 82.2-84.6 48.3 0 84.6 38.7 84.6 87zm-232.2 0c0 77.4 62.9 142.6 147.5 142.6s147.5-65.3 147.5-142.6v-2.4c0-77.4-62.9-140.2-147.5-140.2s-147.5 62.9-147.5 142.6zm673.4 130.6c0 4.8 2.4 7.3 7.3 7.3h45.9c4.8 0 7.3-2.4 7.3-7.3v-259.9c0-3.6-1.2-6-6-6h-48.4c-4.8 0-6 2.4-6 6v259.9zm0-334.9c0 4.8 2.4 7.3 7.3 7.3h45.9c4.8 0 7.3-2.4 7.3-7.3v-48.3c0-3.6-1.2-6-6-6h-48.4c-4.8 0-6 2.4-6 6v48.3zm326.4 334.9c0 4.8 2.4 7.3 7.3 7.3h45.9c4.8 0 7.3-2.4 7.3-7.3v-153.5c0-65.3-38.7-119.7-120.9-119.7h-1.2c-39.9 0-70.1 13.3-88.2 29v-14.5c0-4.8-3.6-7.3-7.3-7.3h-45.9c-4.8 0-7.3 2.4-7.3 7.3v258.7c0 4.8 2.4 7.3 7.3 7.3h45.9c4.8 0 7.3-2.4 7.3-7.3v-142.6c0-44.7 23-77.4 76.2-77.4s73.7 32.6 73.7 77.4v142.6zm-442.5-130.6c0 48.4-36.3 87-84.6 87-48.4 0-82.2-41.1-82.2-87v-2.4c0-45.9 33.8-84.6 82.2-84.6s84.6 38.7 84.6 87z" fill="#fff"/></svg>